<mxfile host="app.diagrams.net" modified="2024-03-26T19:11:00.431Z" agent="Mozilla/5.0 (Windows NT 10.0; Win64; x64) AppleWebKit/537.36 (KHTML, like Gecko) Chrome/122.0.0.0 Safari/537.36 Edg/122.0.0.0" etag="oER443HkYuGQhcKnf34q" version="24.2.0" type="github">
  <diagram name="Page-1" id="90a13364-a465-7bf4-72fc-28e22215d7a0">
    <mxGraphModel dx="1173" dy="631" grid="1" gridSize="10" guides="1" tooltips="1" connect="1" arrows="1" fold="1" page="1" pageScale="1.5" pageWidth="1169" pageHeight="826" background="none" math="0" shadow="0">
      <root>
        <mxCell id="0" style=";html=1;" />
        <mxCell id="1" style=";html=1;" parent="0" />
        <mxCell id="epikebUd65BMmJqUBiV0-3" style="edgeStyle=orthogonalEdgeStyle;rounded=0;orthogonalLoop=1;jettySize=auto;html=1;entryX=0;entryY=0.5;entryDx=0;entryDy=0;" edge="1" parent="1" source="epikebUd65BMmJqUBiV0-2" target="epikebUd65BMmJqUBiV0-4">
          <mxGeometry relative="1" as="geometry">
            <mxPoint x="760" y="590" as="targetPoint" />
          </mxGeometry>
        </mxCell>
        <mxCell id="epikebUd65BMmJqUBiV0-2" value="USB Host" style="whiteSpace=wrap;html=1;aspect=fixed;" vertex="1" parent="1">
          <mxGeometry x="650" y="510" width="80" height="80" as="geometry" />
        </mxCell>
        <mxCell id="epikebUd65BMmJqUBiV0-4" value="Game Board" style="swimlane;whiteSpace=wrap;html=1;" vertex="1" parent="1">
          <mxGeometry x="820" y="500" width="390" height="460" as="geometry" />
        </mxCell>
        <mxCell id="epikebUd65BMmJqUBiV0-13" style="edgeStyle=orthogonalEdgeStyle;rounded=0;orthogonalLoop=1;jettySize=auto;html=1;entryX=0;entryY=0.5;entryDx=0;entryDy=0;" edge="1" parent="epikebUd65BMmJqUBiV0-4" source="epikebUd65BMmJqUBiV0-1" target="epikebUd65BMmJqUBiV0-6">
          <mxGeometry relative="1" as="geometry" />
        </mxCell>
        <mxCell id="epikebUd65BMmJqUBiV0-14" value="USB" style="edgeLabel;html=1;align=center;verticalAlign=middle;resizable=0;points=[];" vertex="1" connectable="0" parent="epikebUd65BMmJqUBiV0-13">
          <mxGeometry x="0.1865" y="-1" relative="1" as="geometry">
            <mxPoint as="offset" />
          </mxGeometry>
        </mxCell>
        <mxCell id="epikebUd65BMmJqUBiV0-21" style="edgeStyle=orthogonalEdgeStyle;rounded=0;orthogonalLoop=1;jettySize=auto;html=1;" edge="1" parent="epikebUd65BMmJqUBiV0-4" source="epikebUd65BMmJqUBiV0-1" target="epikebUd65BMmJqUBiV0-15">
          <mxGeometry relative="1" as="geometry" />
        </mxCell>
        <mxCell id="epikebUd65BMmJqUBiV0-28" value="USB" style="edgeLabel;html=1;align=center;verticalAlign=middle;resizable=0;points=[];" vertex="1" connectable="0" parent="epikebUd65BMmJqUBiV0-21">
          <mxGeometry x="0.0486" y="1" relative="1" as="geometry">
            <mxPoint as="offset" />
          </mxGeometry>
        </mxCell>
        <mxCell id="epikebUd65BMmJqUBiV0-1" value="USB Hub" style="whiteSpace=wrap;html=1;aspect=fixed;" vertex="1" parent="epikebUd65BMmJqUBiV0-4">
          <mxGeometry x="17" y="40" width="80" height="80" as="geometry" />
        </mxCell>
        <mxCell id="epikebUd65BMmJqUBiV0-6" value="Game Piece 1" style="swimlane;whiteSpace=wrap;html=1;" vertex="1" parent="epikebUd65BMmJqUBiV0-4">
          <mxGeometry x="180" y="40" width="190" height="200" as="geometry" />
        </mxCell>
        <mxCell id="epikebUd65BMmJqUBiV0-11" style="edgeStyle=orthogonalEdgeStyle;rounded=0;orthogonalLoop=1;jettySize=auto;html=1;" edge="1" parent="epikebUd65BMmJqUBiV0-6" source="epikebUd65BMmJqUBiV0-7" target="epikebUd65BMmJqUBiV0-9">
          <mxGeometry relative="1" as="geometry" />
        </mxCell>
        <mxCell id="epikebUd65BMmJqUBiV0-7" value="Arduino Nano" style="whiteSpace=wrap;html=1;aspect=fixed;" vertex="1" parent="epikebUd65BMmJqUBiV0-6">
          <mxGeometry x="20" y="40" width="70" height="70" as="geometry" />
        </mxCell>
        <mxCell id="epikebUd65BMmJqUBiV0-12" style="edgeStyle=orthogonalEdgeStyle;rounded=0;orthogonalLoop=1;jettySize=auto;html=1;exitX=0.5;exitY=0;exitDx=0;exitDy=0;entryX=0.5;entryY=1;entryDx=0;entryDy=0;" edge="1" parent="epikebUd65BMmJqUBiV0-6" source="epikebUd65BMmJqUBiV0-8" target="epikebUd65BMmJqUBiV0-7">
          <mxGeometry relative="1" as="geometry" />
        </mxCell>
        <mxCell id="epikebUd65BMmJqUBiV0-8" value="Tag Reader" style="rounded=0;whiteSpace=wrap;html=1;" vertex="1" parent="epikebUd65BMmJqUBiV0-6">
          <mxGeometry x="20" y="140" width="70" height="50" as="geometry" />
        </mxCell>
        <mxCell id="epikebUd65BMmJqUBiV0-9" value="Display" style="rounded=0;whiteSpace=wrap;html=1;" vertex="1" parent="epikebUd65BMmJqUBiV0-6">
          <mxGeometry x="120" y="40" width="50" height="150" as="geometry" />
        </mxCell>
        <mxCell id="epikebUd65BMmJqUBiV0-15" value="Game Piece N" style="swimlane;whiteSpace=wrap;html=1;" vertex="1" parent="epikebUd65BMmJqUBiV0-4">
          <mxGeometry x="17" y="250" width="190" height="200" as="geometry" />
        </mxCell>
        <mxCell id="epikebUd65BMmJqUBiV0-16" style="edgeStyle=orthogonalEdgeStyle;rounded=0;orthogonalLoop=1;jettySize=auto;html=1;" edge="1" parent="epikebUd65BMmJqUBiV0-15" source="epikebUd65BMmJqUBiV0-17" target="epikebUd65BMmJqUBiV0-20">
          <mxGeometry relative="1" as="geometry" />
        </mxCell>
        <mxCell id="epikebUd65BMmJqUBiV0-17" value="Arduino Nano" style="whiteSpace=wrap;html=1;aspect=fixed;" vertex="1" parent="epikebUd65BMmJqUBiV0-15">
          <mxGeometry x="20" y="40" width="70" height="70" as="geometry" />
        </mxCell>
        <mxCell id="epikebUd65BMmJqUBiV0-18" style="edgeStyle=orthogonalEdgeStyle;rounded=0;orthogonalLoop=1;jettySize=auto;html=1;exitX=0.5;exitY=0;exitDx=0;exitDy=0;entryX=0.5;entryY=1;entryDx=0;entryDy=0;" edge="1" parent="epikebUd65BMmJqUBiV0-15" source="epikebUd65BMmJqUBiV0-19" target="epikebUd65BMmJqUBiV0-17">
          <mxGeometry relative="1" as="geometry" />
        </mxCell>
        <mxCell id="epikebUd65BMmJqUBiV0-19" value="Tag Reader" style="rounded=0;whiteSpace=wrap;html=1;" vertex="1" parent="epikebUd65BMmJqUBiV0-15">
          <mxGeometry x="20" y="140" width="70" height="50" as="geometry" />
        </mxCell>
        <mxCell id="epikebUd65BMmJqUBiV0-20" value="Display" style="rounded=0;whiteSpace=wrap;html=1;" vertex="1" parent="epikebUd65BMmJqUBiV0-15">
          <mxGeometry x="120" y="40" width="50" height="150" as="geometry" />
        </mxCell>
        <mxCell id="epikebUd65BMmJqUBiV0-29" value="&lt;h1 style=&quot;margin-top: 0px;&quot;&gt;Board Tiles&lt;/h1&gt;&lt;div&gt;Simple to Complex&lt;/div&gt;&lt;div&gt;Programmable By Game App&lt;/div&gt;&lt;div&gt;Can detect game pieces&lt;/div&gt;&lt;div&gt;Can display status via LEDs or Display Panels&lt;/div&gt;" style="text;html=1;whiteSpace=wrap;overflow=hidden;rounded=0;" vertex="1" parent="epikebUd65BMmJqUBiV0-4">
          <mxGeometry x="210" y="250" width="180" height="120" as="geometry" />
        </mxCell>
        <mxCell id="epikebUd65BMmJqUBiV0-22" value="&lt;h1 style=&quot;margin-top: 0px;&quot;&gt;Game App&lt;/h1&gt;&lt;div&gt;PC, Android, iOS, Linux, MacOS&lt;/div&gt;" style="text;html=1;whiteSpace=wrap;overflow=hidden;rounded=0;" vertex="1" parent="1">
          <mxGeometry x="600" y="610" width="140" height="120" as="geometry" />
        </mxCell>
        <mxCell id="epikebUd65BMmJqUBiV0-23" value="Game Piece 1" style="swimlane;whiteSpace=wrap;html=1;" vertex="1" parent="1">
          <mxGeometry x="1220" y="500" width="150" height="170" as="geometry" />
        </mxCell>
        <mxCell id="epikebUd65BMmJqUBiV0-24" value="Identifying Tag" style="whiteSpace=wrap;html=1;aspect=fixed;" vertex="1" parent="epikebUd65BMmJqUBiV0-23">
          <mxGeometry x="20" y="40" width="110" height="110" as="geometry" />
        </mxCell>
        <mxCell id="epikebUd65BMmJqUBiV0-26" value="Game Piece N" style="swimlane;whiteSpace=wrap;html=1;" vertex="1" parent="1">
          <mxGeometry x="1220" y="680" width="150" height="170" as="geometry" />
        </mxCell>
        <mxCell id="epikebUd65BMmJqUBiV0-27" value="Identifying Tag" style="whiteSpace=wrap;html=1;aspect=fixed;" vertex="1" parent="epikebUd65BMmJqUBiV0-26">
          <mxGeometry x="20" y="40" width="110" height="110" as="geometry" />
        </mxCell>
        <mxCell id="epikebUd65BMmJqUBiV0-30" value="&lt;h1 style=&quot;margin-top: 0px;&quot;&gt;Game Pieces&lt;/h1&gt;&lt;div&gt;Each has a unique ID&lt;/div&gt;" style="text;html=1;whiteSpace=wrap;overflow=hidden;rounded=0;" vertex="1" parent="1">
          <mxGeometry x="1220" y="860" width="180" height="120" as="geometry" />
        </mxCell>
      </root>
    </mxGraphModel>
  </diagram>
</mxfile>
